ToyLandingModel_AFO_states
version=1
nRows=4
nColumns=195
inDegrees=yes

# SIMM Motion File Header:
name ToyLandingModel_AFO_states
datacolumns 195
datarows 4
otherdata 1
range 0.34226204 0.34266487
endheader
time	platform_rx	platform_ry	platform_rz	platform_ty	pelvis_tilt	pelvis_list	pelvis_rotation	pelvis_tx	pelvis_ty	pelvis_tz	hip_flexion_r	hip_adduction_r	hip_rotation_r	knee_angle_r	ankle_angle_r	subtalar_angle_r	mtp_angle_r	hip_flexion_l	hip_adduction_l	hip_rotation_l	knee_angle_l	ankle_angle_l	subtalar_angle_l	mtp_angle_l	lumbar_extension	lumbar_bending	lumbar_rotation	platform_rx_u	platform_ry_u	platform_rz_u	platform_ty_u	pelvis_tilt_u	pelvis_list_u	pelvis_rotation_u	pelvis_tx_u	pelvis_ty_u	pelvis_tz_u	hip_flexion_r_u	hip_adduction_r_u	hip_rotation_r_u	knee_angle_r_u	ankle_angle_r_u	subtalar_angle_r_u	mtp_angle_r_u	hip_flexion_l_u	hip_adduction_l_u	hip_rotation_l_u	knee_angle_l_u	ankle_angle_l_u	subtalar_angle_l_u	mtp_angle_l_u	lumbar_extension_u	lumbar_bending_u	lumbar_rotation_u	glut_med1_r.activation	glut_med1_r.fiber_length	glut_med2_r.activation	glut_med2_r.fiber_length	glut_med3_r.activation	glut_med3_r.fiber_length	bifemlh_r.activation	bifemlh_r.fiber_length	bifemsh_r.activation	bifemsh_r.fiber_length	sar_r.activation	sar_r.fiber_length	add_mag2_r.activation	add_mag2_r.fiber_length	tfl_r.activation	tfl_r.fiber_length	pect_r.activation	pect_r.fiber_length	grac_r.activation	grac_r.fiber_length	glut_max1_r.activation	glut_max1_r.fiber_length	glut_max2_r.activation	glut_max2_r.fiber_length	glut_max3_r.activation	glut_max3_r.fiber_length	iliacus_r.activation	iliacus_r.fiber_length	psoas_r.activation	psoas_r.fiber_length	quad_fem_r.activation	quad_fem_r.fiber_length	gem_r.activation	gem_r.fiber_length	peri_r.activation	peri_r.fiber_length	rect_fem_r.activation	rect_fem_r.fiber_length	vas_int_r.activation	vas_int_r.fiber_length	med_gas_r.activation	med_gas_r.fiber_length	lat_gas_r.activation	lat_gas_r.fiber_length	soleus_r.activation	soleus_r.fiber_length	tib_post_r.activation	tib_post_r.fiber_length	flex_dig_r.activation	flex_dig_r.fiber_length	flex_hal_r.activation	flex_hal_r.fiber_length	tib_ant_r.activation	tib_ant_r.fiber_length	per_brev_r.activation	per_brev_r.fiber_length	per_long_r.activation	per_long_r.fiber_length	per_tert_r.activation	per_tert_r.fiber_length	ext_dig_r.activation	ext_dig_r.fiber_length	ext_hal_r.activation	ext_hal_r.fiber_length	glut_med1_l.activation	glut_med1_l.fiber_length	glut_med2_l.activation	glut_med2_l.fiber_length	glut_med3_l.activation	glut_med3_l.fiber_length	bifemlh_l.activation	bifemlh_l.fiber_length	bifemsh_l.activation	bifemsh_l.fiber_length	sar_l.activation	sar_l.fiber_length	add_mag2_l.activation	add_mag2_l.fiber_length	tfl_l.activation	tfl_l.fiber_length	pect_l.activation	pect_l.fiber_length	grac_l.activation	grac_l.fiber_length	glut_max1_l.activation	glut_max1_l.fiber_length	glut_max2_l.activation	glut_max2_l.fiber_length	glut_max3_l.activation	glut_max3_l.fiber_length	iliacus_l.activation	iliacus_l.fiber_length	psoas_l.activation	psoas_l.fiber_length	quad_fem_l.activation	quad_fem_l.fiber_length	gem_l.activation	gem_l.fiber_length	peri_l.activation	peri_l.fiber_length	rect_fem_l.activation	rect_fem_l.fiber_length	vas_int_l.activation	vas_int_l.fiber_length	med_gas_l.activation	med_gas_l.fiber_length	lat_gas_l.activation	lat_gas_l.fiber_length	soleus_l.activation	soleus_l.fiber_length	tib_post_l.activation	tib_post_l.fiber_length	flex_dig_l.activation	flex_dig_l.fiber_length	flex_hal_l.activation	flex_hal_l.fiber_length	tib_ant_l.activation	tib_ant_l.fiber_length	per_brev_l.activation	per_brev_l.fiber_length	per_long_l.activation	per_long_l.fiber_length	per_tert_l.activation	per_tert_l.fiber_length	ext_dig_l.activation	ext_dig_l.fiber_length	ext_hal_l.activation	ext_hal_l.fiber_length	ercspn_r.activation	ercspn_r.fiber_length	ercspn_l.activation	ercspn_l.fiber_length	intobl_r.activation	intobl_r.fiber_length	intobl_l.activation	intobl_l.fiber_length	extobl_r.activation	extobl_r.fiber_length	extobl_l.activation	extobl_l.fiber_length
      0.34226204	     20.00000000	     -0.00000000	     -0.00000000	     -0.50000000	     -6.89530518	     -4.26687801	     -2.07717832	      0.04740313	      0.36990727	     -0.00135646	     17.91976660	      0.67176957	     -6.46792769	    -29.16021786	     20.32940183	     21.41098876	     -0.00000000	    -19.99999998	     10.00000028	      4.99999985	   -119.99999986	     11.49999977	     -0.03000064	     -0.00000000	     -6.88220480	      5.09983789	      3.90586156	     -0.00000000	      0.00000000	     -0.00000000	      0.00000000	    126.34113642	   -398.41984294	   -285.66050123	     -0.49100875	     -1.61007979	     -0.02770784	    512.61742365	    205.97086003	   -284.33718490	  -1127.99490135	   -278.73513343	    790.89102324	      0.00000000	     -0.00000000	     -0.00000000	     -0.00000000	     -0.00000000	      0.00000000	      0.00000000	      0.00000000	   -285.61648525	    477.30182721	    372.07442714	      0.52385173	      0.04917774	      0.30910939	      0.08471370	      0.29409757	      0.06503857	      0.01043750	      0.09583399	      0.01044505	      0.15983658	      0.01043750	      0.44958998	      0.03576754	      0.07800346	      0.07362976	      0.10152493	      0.01200511	      0.06419142	      0.01043750	      0.30288768	      0.22092764	      0.08634097	      0.21779262	      0.09530289	      0.21053350	      0.10820069	      0.01397334	      0.09665959	      0.01348353	      0.09093835	      0.01043750	      0.04374041	      0.01045504	      0.02356518	      0.21443599	      0.02173507	      0.35944885	      0.10361498	      0.52886400	      0.08596102	      0.39010330	      0.09110272	      0.41150594	      0.06300355	      0.44701905	      0.08642812	      0.16210059	      0.03230205	      0.11447527	      0.02982277	      0.23661358	      0.03767078	      0.02853185	      0.07073672	      0.69806225	      0.05579314	      0.72793396	      0.05155489	      0.16028437	      0.07523432	      0.06901835	      0.08868624	      0.03095710	      0.09490229	      0.01043750	      0.04646020	      0.01043750	      0.07923743	      0.01043750	      0.06066300	      0.01043750	      0.02205816	      0.01043750	      0.12237531	      0.01043750	      0.45555061	      0.01043750	      0.05827703	      0.01043750	      0.13391233	      0.01043750	      0.07307058	      0.01043750	      0.24300334	      0.01043750	      0.06637146	      0.01043750	      0.06553488	      0.01043750	      0.05769091	      0.01043750	      0.11895339	      0.01043750	      0.11275497	      0.01043750	      0.04385286	      0.01043750	      0.02477467	      0.01043750	      0.02330632	      0.01043750	      0.18252091	      0.01043750	      0.13945737	      0.01043750	      0.06769168	      0.01043750	      0.04184238	      0.01043750	      0.08591762	      0.01043750	      0.03560365	      0.01043750	      0.03413501	      0.01043750	      0.04251393	      0.01043750	      0.07208491	      0.01043750	      0.05028303	      0.01043750	      0.05151880	      0.01043750	      0.07462947	      0.01043750	      0.08883084	      0.01043750	      0.09636788	      0.01043750	      0.12041276	      0.28073487	      0.12779163	      0.01043750	      0.09178475	      0.24217836	      0.09663576	      0.01043750	      0.12083065	      0.24020136	      0.13065410
      0.34240192	     20.00000000	     -0.00000000	     -0.00000000	     -0.50000000	     -6.87759234	     -4.32251962	     -2.11704817	      0.04733454	      0.36968227	     -0.00136035	     17.99107452	      0.70057146	     -6.50748709	    -29.31701071	     20.28730220	     21.51922930	     -0.00000000	    -19.99999998	     10.00000028	      4.99999985	   -119.99999986	     11.49999977	     -0.03000064	     -0.00000000	     -6.92223696	      5.16644512	      3.95783081	     -0.00000000	      0.00000000	     -0.00000000	      0.00000000	    126.91550086	   -397.13201531	   -284.38880442	     -0.48964204	     -1.60678714	     -0.02781848	    506.91884092	    205.83658543	   -281.27796781	  -1113.78528422	   -323.06473050	    756.73777085	      0.00000000	     -0.00000000	     -0.00000000	     -0.00000000	     -0.00000000	      0.00000000	      0.00000000	      0.00000000	   -286.75667344	    475.03541884	    370.97077707	      0.52504803	      0.04923007	      0.31014307	      0.08476499	      0.29569222	      0.06507658	      0.01043671	      0.09580413	      0.01044425	      0.15977419	      0.01043671	      0.44949699	      0.03576156	      0.07800556	      0.07358166	      0.10152322	      0.01200148	      0.06415519	      0.01043671	      0.30279006	      0.22167685	      0.08639958	      0.21855924	      0.09536366	      0.21131523	      0.10825776	      0.01396611	      0.09662316	      0.01347720	      0.09090196	      0.01043671	      0.04372093	      0.01045422	      0.02355652	      0.21672633	      0.02172923	      0.36035964	      0.10368554	      0.53066870	      0.08607702	      0.38866502	      0.09110086	      0.40994191	      0.06300060	      0.44523584	      0.08644058	      0.16170598	      0.03229001	      0.11423021	      0.02980983	      0.23593748	      0.03765773	      0.02970550	      0.07069946	      0.69745411	      0.05585100	      0.72683048	      0.05157669	      0.16525744	      0.07522421	      0.07437781	      0.08864290	      0.03405573	      0.09485970	      0.01043671	      0.04646022	      0.01043671	      0.07923744	      0.01043671	      0.06066301	      0.01043671	      0.02205818	      0.01043671	      0.12237532	      0.01043671	      0.45555063	      0.01043671	      0.05827704	      0.01043671	      0.13391233	      0.01043671	      0.07307059	      0.01043671	      0.24300336	      0.01043671	      0.06637147	      0.01043671	      0.06553489	      0.01043671	      0.05769092	      0.01043671	      0.11895340	      0.01043671	      0.11275498	      0.01043671	      0.04385286	      0.01043671	      0.02477468	      0.01043671	      0.02330636	      0.01043671	      0.18252092	      0.01043671	      0.13945737	      0.01043671	      0.06769176	      0.01043671	      0.04184248	      0.01043671	      0.08591765	      0.01043671	      0.03560368	      0.01043671	      0.03413517	      0.01043671	      0.04251410	      0.01043671	      0.07208496	      0.01043671	      0.05028307	      0.01043671	      0.05151887	      0.01043671	      0.07462949	      0.01043671	      0.08883094	      0.01043671	      0.09636796	      0.01043671	      0.12038272	      0.28222869	      0.12785892	      0.01043671	      0.09174869	      0.24245928	      0.09667786	      0.01043671	      0.12077211	      0.24056191	      0.13070462
      0.34254181	     20.00000000	     -0.00000000	     -0.00000000	     -0.50000000	     -6.85979896	     -4.37798092	     -2.15673988	      0.04726614	      0.36945774	     -0.00136425	     18.06158564	      0.72935486	     -6.54662204	    -29.47181815	     20.23905793	     21.62270921	     -0.00000000	    -19.99999998	     10.00000028	      4.99999985	   -119.99999986	     11.49999977	     -0.03000064	     -0.00000000	     -6.96242814	      5.23273511	      4.00964527	     -0.00000000	      0.00000000	     -0.00000000	      0.00000000	    127.48620636	   -395.83130620	   -283.10782718	     -0.48825632	     -1.60351905	     -0.02791747	    501.23118081	    205.69480578	   -278.27088911	  -1099.61054139	   -366.57585212	    722.82772096	      0.00000000	     -0.00000000	     -0.00000000	     -0.00000000	     -0.00000000	      0.00000000	      0.00000000	      0.00000000	   -287.87747609	    472.75081952	    369.85020065	      0.52617408	      0.04928213	      0.31112042	      0.08481599	      0.29722495	      0.06511447	      0.01043593	      0.09577451	      0.01044345	      0.15971179	      0.01043593	      0.44940502	      0.03575232	      0.07800778	      0.07353498	      0.10152156	      0.01199786	      0.06411896	      0.01043593	      0.30269327	      0.22237224	      0.08645784	      0.21926768	      0.09542402	      0.21202208	      0.10831435	      0.01395889	      0.09658672	      0.01347088	      0.09086558	      0.01043593	      0.04370146	      0.01045340	      0.02354786	      0.21897592	      0.02172349	      0.36117593	      0.10375593	      0.53235089	      0.08619183	      0.38723502	      0.09109847	      0.40838722	      0.06299722	      0.44346395	      0.08645180	      0.16131270	      0.03227791	      0.11398586	      0.02979680	      0.23526420	      0.03764461	      0.03164510	      0.07066204	      0.69668185	      0.05590744	      0.72553931	      0.05159970	      0.17040622	      0.07521522	      0.07999202	      0.08859897	      0.03757893	      0.09481671	      0.01043593	      0.04646024	      0.01043593	      0.07923745	      0.01043593	      0.06066302	      0.01043593	      0.02205821	      0.01043593	      0.12237533	      0.01043593	      0.45555064	      0.01043593	      0.05827706	      0.01043593	      0.13391234	      0.01043593	      0.07307059	      0.01043593	      0.24300339	      0.01043593	      0.06637149	      0.01043593	      0.06553491	      0.01043593	      0.05769094	      0.01043593	      0.11895340	      0.01043593	      0.11275500	      0.01043593	      0.04385287	      0.01043593	      0.02477469	      0.01043593	      0.02330639	      0.01043593	      0.18252092	      0.01043593	      0.13945738	      0.01043593	      0.06769184	      0.01043593	      0.04184259	      0.01043593	      0.08591767	      0.01043593	      0.03560370	      0.01043593	      0.03413532	      0.01043593	      0.04251427	      0.01043593	      0.07208501	      0.01043593	      0.05028311	      0.01043593	      0.05151894	      0.01043593	      0.07462951	      0.01043593	      0.08883103	      0.01043593	      0.09636804	      0.01043593	      0.12035297	      0.28368186	      0.12794586	      0.01043593	      0.09171262	      0.24268293	      0.09671961	      0.01043593	      0.12071470	      0.24086674	      0.13075479
      0.34266487	     20.00000000	     -0.00000000	     -0.00000000	     -0.50000000	     -6.84407826	     -4.42662481	     -2.19151196	      0.04720613	      0.36926058	     -0.00136769	     18.12296288	      0.75466216	     -6.58070736	    -29.60637834	     20.19162389	     21.70984047	     -0.00000000	    -19.99999998	     10.00000028	      4.99999985	   -119.99999986	     11.49999977	     -0.03000064	     -0.00000000	     -6.99791743	      5.29079218	      4.05510132	     -0.00000000	      0.00000000	     -0.00000000	      0.00000000	    127.99800131	   -394.69750069	   -281.98417582	     -0.48705118	     -1.60063543	     -0.02801288	    496.22448344	    205.58603846	   -275.66411231	  -1087.16597107	   -404.18355613	    693.19663170	      0.00000000	     -0.00000000	     -0.00000000	     -0.00000000	     -0.00000000	      0.00000000	      0.00000000	      0.00000000	   -288.87292193	    470.75591152	    368.87186750	      0.52710788	      0.04932770	      0.31193455	      0.08486063	      0.29852285	      0.06514768	      0.01043524	      0.09574867	      0.01044274	      0.15965690	      0.01043524	      0.44932497	      0.03574150	      0.07800983	      0.07349508	      0.10152016	      0.01199468	      0.06408709	      0.01043524	      0.30260879	      0.22294034	      0.08650879	      0.21984375	      0.09547678	      0.21258323	      0.10836371	      0.01395255	      0.09655467	      0.01346533	      0.09083357	      0.01043524	      0.04368432	      0.01045269	      0.02354025	      0.22092081	      0.02171853	      0.36181742	      0.10381771	      0.53373136	      0.08629186	      0.38598372	      0.09109589	      0.40702710	      0.06299389	      0.44191434	      0.08646070	      0.16096779	      0.03226720	      0.11377146	      0.02978528	      0.23467417	      0.03763302	      0.03394794	      0.07062893	      0.69586892	      0.05595588	      0.72425115	      0.05162098	      0.17506823	      0.07520822	      0.08512121	      0.08855982	      0.04100273	      0.09477854	      0.01043524	      0.04646025	      0.01043524	      0.07923746	      0.01043524	      0.06066303	      0.01043524	      0.02205823	      0.01043524	      0.12237534	      0.01043524	      0.45555066	      0.01043524	      0.05827707	      0.01043524	      0.13391234	      0.01043524	      0.07307060	      0.01043524	      0.24300340	      0.01043524	      0.06637150	      0.01043524	      0.06553492	      0.01043524	      0.05769096	      0.01043524	      0.11895341	      0.01043524	      0.11275501	      0.01043524	      0.04385287	      0.01043524	      0.02477469	      0.01043524	      0.02330642	      0.01043524	      0.18252092	      0.01043524	      0.13945738	      0.01043524	      0.06769191	      0.01043524	      0.04184268	      0.01043524	      0.08591770	      0.01043524	      0.03560373	      0.01043524	      0.03413546	      0.01043524	      0.04251442	      0.01043524	      0.07208505	      0.01043524	      0.05028314	      0.01043524	      0.05151901	      0.01043524	      0.07462953	      0.01043524	      0.08883111	      0.01043524	      0.09636811	      0.01043524	      0.12032703	      0.28492727	      0.12799881	      0.01043524	      0.09168089	      0.24283311	      0.09675606	      0.01043524	      0.12066510	      0.24108960	      0.13079863
